<svg version="1.1" id="Layer_1" xmlns="http://www.w3.org/2000/svg" xmlns:xlink="http://www.w3.org/1999/xlink" x="0px" y="0px" viewBox="0 0 283.4 66.4" style="enable-background:new 0 0 283.4 66.4;" xml:space="preserve">
 <style type="text/css">
  .st0{fill:#FFFFFF;}
 </style>
 <title>
  Duolingo_wordmark_white
 </title>
 <path class="st0" d="M246.2,33.2c0-10.5,8-17.9,18.6-17.9c10.6,0,18.6,7.4,18.6,17.9s-8,17.9-18.6,17.9
	C254.2,51.1,246.2,43.6,246.2,33.2z M272.9,33.2c0-4.9-3.1-8.5-8-8.5c-4.9,0-8,3.6-8,8.5s3.1,8.5,8,8.5
	C269.8,41.7,272.9,38.2,272.9,33.2z M239.2,24.9c0.7,1.4,1,2.9,1,4.5c0,3.8-2,7.3-5.2,10c4.4,2.1,7,7.2,7,12c0,9-7.3,15-18.4,15
	s-18.4-5.9-18.4-15c-0.1-5,2.6-9.6,7-12c-3.3-2.7-5.2-6.2-5.2-10c0-7.9,6.2-13.7,16-13.7c5.8,0,7.5,1,10.8,1
	c2.2,0.1,4.5-0.5,6.4-1.7c0.7-0.4,1.4-0.7,2.2-0.7c1.3,0,2,1.3,2,2.9C244.7,20.7,242.5,23.8,239.2,24.9z M231.7,51.1
	c0-4-3.1-6.8-8-6.8s-8,2.7-8,6.8c0,3.8,3.4,6.8,8,6.8S231.7,54.9,231.7,51.1z M217.2,30c0.1,3.5,3.1,6.3,6.7,6.2
	c3.4-0.1,6-2.8,6.2-6.2c0-3.6-2.6-6.1-6.4-6.1S217.2,26.3,217.2,30z M200.4,33.9v12.5c0,2.4-0.9,3.4-3.5,3.4h-3.5
	c-2.6,0-3.5-1-3.5-3.4V34.2c0-3.1-0.5-5.3-1.6-6.7c-1.3-1.6-3.3-2.4-5.3-2.3c-2.1-0.1-4.1,0.8-5.5,2.3c-1.2,1.4-2,3.6-2,6.6v12.2
	c0,2.5-1.1,3.4-3.5,3.4h-3.5c-2.4,0-3.5-0.9-3.5-3.4v-28c0-1.6,0.8-2.3,2-2.3c1.8,0,4.3,1.5,6.2,4.4c2.9-3.2,7-5,11.3-5
	c5.1,0,9.2,1.8,11.9,4.8S200.4,27.3,200.4,33.9z M145.8,5.7c0-3.2,2.7-5.7,5.8-5.7c0.1,0,0.1,0,0.2,0c3.1,0.2,5.5,2.9,5.3,6
	s-2.9,5.5-6,5.3C148.1,11.2,145.8,8.7,145.8,5.7z M146.5,46.4V20.1c0-2.4,0.9-3.5,3.5-3.5h3.5c2.6,0,3.5,1,3.5,3.5v26.3
	c0,2.4-0.9,3.4-3.5,3.4H150C147.4,49.8,146.5,48.8,146.5,46.4L146.5,46.4z M128,46.4v-33c0-8.3,4.6-13,8.5-13c1.2,0,2,0.8,2,2.3
	v43.7c0,2.5-1,3.4-3.5,3.4h-3.5C129.1,49.8,128,48.9,128,46.4z M84.8,33.2c0-10.5,8-17.9,18.6-17.9S122,22.7,122,33.2
	s-8,17.9-18.6,17.9S84.8,43.6,84.8,33.2z M111.4,33.2c0-4.9-3.1-8.5-8-8.5s-8,3.6-8,8.5s3.1,8.5,8,8.5S111.4,38.2,111.4,33.2
	L111.4,33.2z M79.4,20.1v28c0,1.6-0.8,2.3-2,2.3c-1.8,0-4.3-1.5-6.1-4.3c-2.8,3.2-6.8,5-11.1,4.9c-4,0.1-7.8-1.3-10.8-4
	c-3.1-3-4.8-7.6-4.8-14.2V20.1c0-2.4,0.9-3.5,3.5-3.5h3.5c2.6,0,3.5,1,3.5,3.5v11.8c0,4,0.7,6.1,2,7.5c1.2,1.2,3,1.9,4.7,1.8
	c1.9,0,3.7-0.7,5-2.1s2-3.6,2-7v-12c0-2.5,1.1-3.5,3.5-3.5h3.5C78.3,16.6,79.4,17.6,79.4,20.1z M37.4,2.7v45.4c0,1.6-0.8,2.3-2,2.3
	c-1.8,0-4.3-1.5-6.1-4.2c-2.2,2.6-6.7,4.9-11.9,4.9C7,51.1,0,43.5,0,33.2s7.2-17.9,17.4-17.9c3.4,0,6.7,1,9.6,2.9v-4.8
	c0-8.3,4.7-13,8.5-13C36.7,0.4,37.4,1.2,37.4,2.7z M27,33.2c0-5.1-3.6-8.5-8.1-8.5s-8.2,3.4-8.2,8.5s3.6,8.5,8.2,8.5
	S27,38.4,27,33.2z">
 </path>
</svg>