<svg width="300" height="300" viewBox="0 0 300 300" fill="none" xmlns="http://www.w3.org/2000/svg">
  <rect width="300" height="300" fill="#1a0f0b"/>
  <rect width="300" height="300" fill="url(#g)"/>
  <circle cx="150" cy="150" r="96" fill="#2b1410" opacity="0.75"/>
  <circle cx="150" cy="150" r="70" fill="#441b12"/>
  <path d="M84 176c22-52 45-78 69-78 25 0 46 26 63 78-17 14-38 21-64 21-27 0-49-7-68-21Z" fill="#d44a20"/>
  <path d="M102 170c18-34 35-51 52-51 17 0 32 17 45 51-14 9-29 14-47 14-20 0-37-5-50-14Z" fill="#f06a2a"/>
  <path d="M124 98c13-16 29-24 48-24 21 0 38 9 52 28-20-8-39-12-58-12-16 0-30 3-42 8Z" fill="#ffb25d"/>
  <path d="M92 210c28 15 61 22 100 21" stroke="#ffbd7a" stroke-width="7" stroke-linecap="round" opacity="0.5"/>
  <defs>
    <radialGradient id="g" cx="0" cy="0" r="1" gradientUnits="userSpaceOnUse" gradientTransform="translate(150 118) rotate(90) scale(208)">
      <stop stop-color="#ff8a3d"/>
      <stop offset="0.45" stop-color="#8c2a18"/>
      <stop offset="1" stop-color="#060303"/>
    </radialGradient>
  </defs>
</svg>
